<?xml version="1.0" encoding="utf-8"?>
<!-- Generator: Adobe Illustrator 16.0.0, SVG Export Plug-In . SVG Version: 6.00 Build 0)  -->
<!DOCTYPE svg PUBLIC "-//W3C//DTD SVG 1.1//EN" "http://www.w3.org/Graphics/SVG/1.1/DTD/svg11.dtd">
<svg version="1.1" id="Capa_1" xmlns="http://www.w3.org/2000/svg" xmlns:xlink="http://www.w3.org/1999/xlink" x="0px" y="0px"
	 width="400.002px" height="212px" viewBox="313.833 143.401 400.002 212" enable-background="new 313.833 143.401 400.002 212"
	 xml:space="preserve">
<path fill="#9A9A9A" d="M96.51,221.926l0.704,0.255c0.019,0.008,0.027,0.024,0.022,0.037c-0.012,0.013-0.026,0.025-0.039,0.017
	h-0.004L96.51,221.926z"/>
<g>
	<path fill="#59A635" d="M332.486,222.498c-1.742,0-3.374-0.328-4.899-0.984c-1.523-0.656-2.853-1.55-3.984-2.682
		c-1.134-1.132-2.027-2.458-2.682-3.985c-0.657-1.525-0.984-3.157-0.984-4.897c0-1.716,0.327-3.337,0.984-4.862
		c0.655-1.526,1.548-2.847,2.682-3.97c1.131-1.121,2.461-2.007,3.984-2.662c1.526-0.656,3.158-0.985,4.899-0.985
		c1.144,0,2.257,0.15,3.34,0.449c1.087,0.299,2.099,0.729,3.04,1.286c0.94,0.563,1.807,1.247,2.595,2.056
		c0.788,0.811,1.453,1.718,2.002,2.72l0.105,0.176h-2.358l-0.035-0.071c-0.98-1.621-2.231-2.876-3.755-3.771
		c-1.525-0.894-3.17-1.34-4.935-1.34c-1.431,0-2.771,0.287-4.023,0.856c-1.249,0.573-2.345,1.355-3.288,2.344
		c-0.942,0.989-1.68,2.149-2.218,3.485c-0.535,1.334-0.803,2.765-0.803,4.29c0,1.501,0.268,2.925,0.803,4.271
		c0.538,1.346,1.276,2.522,2.218,3.52c0.943,1.002,2.039,1.795,3.288,2.379c1.252,0.583,2.592,0.875,4.023,0.875
		c1.765,0,3.409-0.459,4.935-1.375c1.523-0.92,2.774-2.186,3.755-3.809l0.035-0.105h2.358l-0.105,0.213
		c-0.55,1.024-1.215,1.943-2.002,2.751c-0.788,0.813-1.655,1.504-2.595,2.075c-0.94,0.572-1.953,1.009-3.04,1.304
		C334.743,222.349,333.629,222.498,332.486,222.498"/>
	<path fill="none" stroke="#59A635" stroke-width="0.1222" stroke-miterlimit="10" d="M332.486,222.498
		c-1.742,0-3.374-0.328-4.899-0.984c-1.523-0.656-2.853-1.55-3.984-2.682c-1.134-1.132-2.027-2.458-2.682-3.985
		c-0.657-1.525-0.984-3.157-0.984-4.897c0-1.716,0.327-3.337,0.984-4.862c0.655-1.526,1.548-2.847,2.682-3.97
		c1.131-1.121,2.461-2.007,3.984-2.662c1.526-0.656,3.158-0.985,4.899-0.985c1.144,0,2.257,0.15,3.34,0.449
		c1.087,0.299,2.099,0.729,3.04,1.286c0.94,0.563,1.807,1.247,2.595,2.056c0.788,0.811,1.453,1.718,2.002,2.72l0.105,0.176h-2.358
		l-0.035-0.071c-0.98-1.621-2.231-2.876-3.755-3.771c-1.525-0.894-3.17-1.34-4.935-1.34c-1.431,0-2.771,0.287-4.023,0.856
		c-1.249,0.573-2.345,1.355-3.288,2.344c-0.942,0.989-1.68,2.149-2.218,3.485c-0.535,1.334-0.803,2.765-0.803,4.29
		c0,1.501,0.268,2.925,0.803,4.271c0.538,1.346,1.276,2.522,2.218,3.52c0.943,1.002,2.039,1.795,3.288,2.379
		c1.252,0.583,2.592,0.875,4.023,0.875c1.765,0,3.409-0.459,4.935-1.375c1.523-0.92,2.774-2.186,3.755-3.809l0.035-0.105h2.358
		l-0.105,0.213c-0.55,1.024-1.215,1.943-2.002,2.751c-0.788,0.813-1.655,1.504-2.595,2.075c-0.94,0.572-1.953,1.009-3.04,1.304
		C334.743,222.349,333.629,222.498,332.486,222.498z"/>
	<path fill="#59A635" d="M351.506,210.199c-0.621,0.024-1.212,0.167-1.772,0.429c-0.561,0.26-1.056,0.619-1.48,1.072
		c-0.432,0.452-0.782,0.989-1.058,1.609c-0.271,0.619-0.446,1.286-0.517,2v0.573v6.471h-1.645v-12.977h1.645v2.181
		c0.568-0.692,1.275-1.228,2.106-1.609c0.839-0.382,1.74-0.572,2.721-0.572V210.199z"/>
	<path fill="none" stroke="#59A635" stroke-width="0.1222" stroke-miterlimit="10" d="M351.506,210.199
		c-0.621,0.024-1.212,0.167-1.772,0.429c-0.561,0.26-1.056,0.619-1.48,1.072c-0.432,0.452-0.782,0.989-1.058,1.609
		c-0.271,0.619-0.446,1.286-0.517,2v0.573v6.471h-1.645v-12.977h1.645v2.181c0.568-0.692,1.275-1.228,2.106-1.609
		c0.839-0.382,1.74-0.572,2.721-0.572V210.199z"/>
	<path fill="#59A635" d="M358.353,209.412c0.908,0,1.76,0.173,2.563,0.517c0.792,0.345,1.492,0.82,2.085,1.425
		c0.596,0.604,1.071,1.303,1.414,2.099c0.346,0.795,0.52,1.654,0.52,2.58v0.587c0,0.204-0.025,0.396-0.071,0.586h-6.51h-4.859
		c0.117,0.64,0.33,1.232,0.625,1.774c0.299,0.542,0.664,1.017,1.092,1.419c0.429,0.402,0.913,0.713,1.446,0.94
		c0.539,0.225,1.104,0.335,1.697,0.335v0.896c-0.905,0-1.761-0.172-2.571-0.517c-0.811-0.344-1.515-0.814-2.109-1.409
		c-0.596-0.594-1.067-1.283-1.41-2.066c-0.348-0.786-0.521-1.628-0.521-2.531c0-0.927,0.173-1.791,0.521-2.586
		c0.343-0.798,0.814-1.498,1.41-2.104c0.594-0.606,1.298-1.082,2.109-1.427C356.592,209.584,357.448,209.412,358.353,209.412
		 M363.289,215.489c-0.048-0.713-0.215-1.387-0.5-2.02c-0.286-0.63-0.65-1.18-1.093-1.643c-0.438-0.464-0.943-0.834-1.519-1.109
		c-0.57-0.272-1.176-0.413-1.825-0.413c-0.642,0-1.256,0.14-1.837,0.413c-0.587,0.274-1.098,0.645-1.539,1.109
		c-0.441,0.463-0.799,1.013-1.071,1.643c-0.276,0.633-0.447,1.307-0.518,2.02H363.289z"/>
	<path fill="none" stroke="#59A635" stroke-width="0.1222" stroke-miterlimit="10" d="M358.353,209.412
		c0.908,0,1.76,0.173,2.563,0.517c0.792,0.345,1.492,0.82,2.085,1.425c0.596,0.604,1.071,1.303,1.414,2.099
		c0.346,0.795,0.52,1.654,0.52,2.58v0.587c0,0.204-0.025,0.396-0.071,0.586h-6.51h-4.859c0.117,0.64,0.33,1.232,0.625,1.774
		c0.299,0.542,0.664,1.017,1.092,1.419c0.429,0.402,0.913,0.713,1.446,0.94c0.539,0.225,1.104,0.335,1.697,0.335v0.896
		c-0.905,0-1.761-0.172-2.571-0.517c-0.811-0.344-1.515-0.814-2.109-1.409c-0.596-0.594-1.067-1.283-1.41-2.066
		c-0.348-0.786-0.521-1.628-0.521-2.531c0-0.927,0.173-1.791,0.521-2.586c0.343-0.798,0.814-1.498,1.41-2.104
		c0.594-0.606,1.298-1.082,2.109-1.427C356.592,209.584,357.448,209.412,358.353,209.412z M363.289,215.489
		c-0.048-0.713-0.215-1.387-0.5-2.02c-0.286-0.63-0.65-1.18-1.093-1.643c-0.438-0.464-0.943-0.834-1.519-1.109
		c-0.57-0.272-1.176-0.413-1.825-0.413c-0.642,0-1.256,0.14-1.837,0.413c-0.587,0.274-1.098,0.645-1.539,1.109
		c-0.441,0.463-0.799,1.013-1.071,1.643c-0.276,0.633-0.447,1.307-0.518,2.02H363.289z"/>
	<path fill="#59A635" d="M366.078,216.008c0-0.881,0.169-1.72,0.502-2.507c0.331-0.79,0.785-1.471,1.355-2.044
		c0.573-0.573,1.247-1.025,2.022-1.361c0.775-0.337,1.616-0.504,2.522-0.504c0.904,0,1.766,0.191,2.591,0.573
		c0.821,0.381,1.543,0.906,2.162,1.571v-2.145h1.573v12.835h-1.573v-2.145c-0.619,0.667-1.34,1.191-2.162,1.574
		c-0.825,0.379-1.687,0.571-2.591,0.571c-0.906,0-1.748-0.168-2.522-0.502c-0.775-0.333-1.449-0.796-2.022-1.381
		c-0.57-0.584-1.025-1.267-1.355-2.043C366.247,217.725,366.078,216.894,366.078,216.008 M367.651,216.025
		c0,0.762,0.128,1.478,0.376,2.146c0.25,0.667,0.593,1.251,1.036,1.752c0.438,0.5,0.952,0.892,1.537,1.178
		c0.582,0.287,1.21,0.43,1.879,0.43c0.617,0,1.202-0.125,1.749-0.375c0.549-0.251,1.035-0.601,1.466-1.054
		c0.427-0.454,0.773-0.983,1.037-1.593c0.261-0.606,0.43-1.267,0.5-1.982v-1.074c-0.071-0.688-0.239-1.339-0.5-1.947
		c-0.264-0.608-0.61-1.131-1.037-1.572c-0.431-0.441-0.917-0.792-1.466-1.057c-0.547-0.261-1.132-0.393-1.749-0.393
		c-0.669,0-1.297,0.149-1.879,0.447c-0.585,0.299-1.098,0.697-1.537,1.2c-0.442,0.5-0.787,1.083-1.036,1.75
		C367.779,214.548,367.651,215.265,367.651,216.025"/>
	<path fill="none" stroke="#59A635" stroke-width="0.1222" stroke-miterlimit="10" d="M366.078,216.008
		c0-0.881,0.169-1.72,0.502-2.507c0.331-0.79,0.785-1.471,1.355-2.044c0.573-0.573,1.247-1.025,2.022-1.361
		c0.775-0.337,1.616-0.504,2.522-0.504c0.904,0,1.766,0.191,2.591,0.573c0.821,0.381,1.543,0.906,2.162,1.571v-2.145h1.573v12.835
		h-1.573v-2.145c-0.619,0.667-1.34,1.191-2.162,1.574c-0.825,0.379-1.687,0.571-2.591,0.571c-0.906,0-1.748-0.168-2.522-0.502
		c-0.775-0.333-1.449-0.796-2.022-1.381c-0.57-0.584-1.025-1.267-1.355-2.043C366.247,217.725,366.078,216.894,366.078,216.008z
		 M367.651,216.025c0,0.762,0.128,1.478,0.376,2.146c0.25,0.667,0.593,1.251,1.036,1.752c0.438,0.5,0.952,0.892,1.537,1.178
		c0.582,0.287,1.21,0.43,1.879,0.43c0.617,0,1.202-0.125,1.749-0.375c0.549-0.251,1.035-0.601,1.466-1.054
		c0.427-0.454,0.773-0.983,1.037-1.593c0.261-0.606,0.43-1.267,0.5-1.982v-1.074c-0.071-0.688-0.239-1.339-0.5-1.947
		c-0.264-0.608-0.61-1.131-1.037-1.572c-0.431-0.441-0.917-0.792-1.466-1.057c-0.547-0.261-1.132-0.393-1.749-0.393
		c-0.669,0-1.297,0.149-1.879,0.447c-0.585,0.299-1.098,0.697-1.537,1.2c-0.442,0.5-0.787,1.083-1.036,1.75
		C367.779,214.548,367.651,215.265,367.651,216.025z"/>
	<path fill="#59A635" d="M392.138,219.136c-0.544,0.977-1.328,1.777-2.338,2.396c-1.014,0.619-2.127,0.929-3.346,0.929
		c-0.904,0-1.75-0.165-2.536-0.501c-0.785-0.333-1.482-0.802-2.081-1.397c-0.599-0.596-1.07-1.299-1.41-2.099
		c-0.342-0.799-0.515-1.652-0.515-2.561c0-0.886,0.173-1.727,0.515-2.528c0.34-0.8,0.812-1.495,1.41-2.08
		c0.599-0.586,1.296-1.052,2.081-1.398c0.786-0.346,1.631-0.52,2.536-0.52c1.219,0,2.332,0.308,3.346,0.927
		c1.009,0.621,1.794,1.43,2.338,2.434h-1.607c-0.476-0.764-1.067-1.366-1.768-1.807c-0.703-0.44-1.476-0.663-2.309-0.663
		c-0.667,0-1.298,0.15-1.892,0.448c-0.594,0.297-1.115,0.701-1.556,1.211s-0.792,1.104-1.055,1.781
		c-0.26,0.678-0.394,1.409-0.394,2.194c0,0.782,0.133,1.521,0.394,2.208c0.263,0.689,0.614,1.29,1.055,1.801
		c0.441,0.511,0.962,0.915,1.556,1.212s1.226,0.447,1.892,0.447c0.833,0,1.606-0.223,2.309-0.664c0.7-0.44,1.292-1.03,1.768-1.77
		L392.138,219.136L392.138,219.136z"/>
	<path fill="none" stroke="#59A635" stroke-width="0.1222" stroke-miterlimit="10" d="M392.138,219.136
		c-0.544,0.977-1.328,1.777-2.338,2.396c-1.014,0.619-2.127,0.929-3.346,0.929c-0.904,0-1.75-0.165-2.536-0.501
		c-0.785-0.333-1.482-0.802-2.081-1.397c-0.599-0.596-1.07-1.299-1.41-2.099c-0.342-0.799-0.515-1.652-0.515-2.561
		c0-0.886,0.173-1.727,0.515-2.528c0.34-0.8,0.812-1.495,1.41-2.08c0.599-0.586,1.296-1.052,2.081-1.398
		c0.786-0.346,1.631-0.52,2.536-0.52c1.219,0,2.332,0.308,3.346,0.927c1.009,0.621,1.794,1.43,2.338,2.434h-1.607
		c-0.476-0.764-1.067-1.366-1.768-1.807c-0.703-0.44-1.476-0.663-2.309-0.663c-0.667,0-1.298,0.15-1.892,0.448
		c-0.594,0.297-1.115,0.701-1.556,1.211s-0.792,1.104-1.055,1.781c-0.26,0.678-0.394,1.409-0.394,2.194
		c0,0.782,0.133,1.521,0.394,2.208c0.263,0.689,0.614,1.29,1.055,1.801c0.441,0.511,0.962,0.915,1.556,1.212
		s1.226,0.447,1.892,0.447c0.833,0,1.606-0.223,2.309-0.664c0.7-0.44,1.292-1.03,1.768-1.77L392.138,219.136L392.138,219.136z"/>
	<rect x="393.928" y="209.303" fill="#59A635" width="1.644" height="13.123"/>
	
		<rect x="393.928" y="209.303" fill="none" stroke="#59A635" stroke-width="0.1222" stroke-miterlimit="10" width="1.644" height="13.123"/>
	<path fill="#59A635" d="M410.551,215.883c0,0.931-0.172,1.795-0.518,2.592c-0.344,0.802-0.824,1.501-1.43,2.111
		c-0.609,0.604-1.312,1.083-2.11,1.428c-0.801,0.345-1.666,0.519-2.593,0.519c-0.905,0-1.758-0.174-2.556-0.519
		c-0.797-0.345-1.498-0.823-2.095-1.428c-0.593-0.61-1.065-1.309-1.407-2.111c-0.345-0.797-0.52-1.661-0.52-2.592
		c0-0.929,0.175-1.792,0.52-2.591c0.342-0.799,0.814-1.5,1.407-2.109c0.597-0.608,1.297-1.084,2.095-1.432
		c0.798-0.344,1.651-0.517,2.556-0.517c0.928,0,1.792,0.173,2.593,0.517c0.798,0.348,1.5,0.824,2.11,1.432
		c0.606,0.608,1.086,1.31,1.43,2.109C410.378,214.091,410.551,214.954,410.551,215.883 M403.901,210.128
		c-0.693,0-1.334,0.156-1.929,0.465c-0.595,0.31-1.123,0.722-1.573,1.239c-0.453,0.511-0.806,1.123-1.053,1.829
		c-0.251,0.704-0.377,1.451-0.377,2.24s0.126,1.531,0.377,2.224c0.247,0.694,0.6,1.301,1.053,1.829
		c0.45,0.526,0.978,0.938,1.573,1.236c0.594,0.3,1.236,0.448,1.929,0.448c0.691,0,1.341-0.149,1.948-0.448
		c0.609-0.298,1.139-0.709,1.589-1.236c0.456-0.527,0.811-1.135,1.075-1.829c0.263-0.693,0.393-1.435,0.393-2.224
		s-0.129-1.536-0.393-2.24c-0.264-0.706-0.619-1.318-1.075-1.829c-0.45-0.517-0.979-0.929-1.589-1.239
		C405.241,210.284,404.592,210.128,403.901,210.128"/>
	<path fill="none" stroke="#59A635" stroke-width="0.1222" stroke-miterlimit="10" d="M410.551,215.883
		c0,0.931-0.172,1.795-0.518,2.592c-0.344,0.802-0.824,1.501-1.43,2.111c-0.609,0.604-1.312,1.083-2.11,1.428
		c-0.801,0.345-1.666,0.519-2.593,0.519c-0.905,0-1.758-0.174-2.556-0.519c-0.797-0.345-1.498-0.823-2.095-1.428
		c-0.593-0.61-1.065-1.309-1.407-2.111c-0.345-0.797-0.52-1.661-0.52-2.592c0-0.929,0.175-1.792,0.52-2.591
		c0.342-0.799,0.814-1.5,1.407-2.109c0.597-0.608,1.297-1.084,2.095-1.432c0.798-0.344,1.651-0.517,2.556-0.517
		c0.928,0,1.792,0.173,2.593,0.517c0.798,0.348,1.5,0.824,2.11,1.432c0.606,0.608,1.086,1.31,1.43,2.109
		C410.378,214.091,410.551,214.954,410.551,215.883z M403.901,210.128c-0.693,0-1.334,0.156-1.929,0.465
		c-0.595,0.31-1.123,0.722-1.573,1.239c-0.453,0.511-0.806,1.123-1.053,1.829c-0.251,0.704-0.377,1.451-0.377,2.24
		s0.126,1.531,0.377,2.224c0.247,0.694,0.6,1.301,1.053,1.829c0.45,0.526,0.978,0.938,1.573,1.236
		c0.594,0.3,1.236,0.448,1.929,0.448c0.691,0,1.341-0.149,1.948-0.448c0.609-0.298,1.139-0.709,1.589-1.236
		c0.456-0.527,0.811-1.135,1.075-1.829c0.263-0.693,0.393-1.435,0.393-2.224s-0.129-1.536-0.393-2.24
		c-0.264-0.706-0.619-1.318-1.075-1.829c-0.45-0.517-0.979-0.929-1.589-1.239C405.241,210.284,404.592,210.128,403.901,210.128z"/>
	<path fill="#59A635" d="M418.362,209.412c0.884,0,1.726,0.17,2.528,0.517c0.799,0.346,1.493,0.814,2.079,1.409
		c0.585,0.595,1.051,1.291,1.397,2.085c0.347,0.796,0.518,1.65,0.518,2.551v6.524h-1.643v-6.542c0-0.787-0.125-1.527-0.375-2.216
		c-0.252-0.693-0.601-1.288-1.039-1.789c-0.444-0.499-0.967-0.897-1.563-1.198c-0.6-0.295-1.246-0.445-1.937-0.445
		c-0.625,0-1.222,0.132-1.792,0.394c-0.576,0.262-1.088,0.611-1.532,1.054c-0.44,0.44-0.799,0.972-1.073,1.591
		c-0.276,0.619-0.438,1.288-0.483,2.001v0.609v6.542h-1.645v-13.085h1.645l0.039,2.217c0.597-0.691,1.315-1.234,2.148-1.626
		C416.475,209.609,417.382,209.412,418.362,209.412"/>
	<path fill="none" stroke="#59A635" stroke-width="0.1222" stroke-miterlimit="10" d="M418.362,209.412
		c0.884,0,1.726,0.17,2.528,0.517c0.799,0.346,1.493,0.814,2.079,1.409c0.585,0.595,1.051,1.291,1.397,2.085
		c0.347,0.796,0.518,1.65,0.518,2.551v6.524h-1.643v-6.542c0-0.787-0.125-1.527-0.375-2.216c-0.252-0.693-0.601-1.288-1.039-1.789
		c-0.444-0.499-0.967-0.897-1.563-1.198c-0.6-0.295-1.246-0.445-1.937-0.445c-0.625,0-1.222,0.132-1.792,0.394
		c-0.576,0.262-1.088,0.611-1.532,1.054c-0.44,0.44-0.799,0.972-1.073,1.591c-0.276,0.619-0.438,1.288-0.483,2.001v0.609v6.542
		h-1.645v-13.085h1.645l0.039,2.217c0.597-0.691,1.315-1.234,2.148-1.626C416.475,209.609,417.382,209.412,418.362,209.412z"/>
	<path fill="#59A635" d="M432.396,209.412c0.905,0,1.755,0.173,2.557,0.517c0.793,0.345,1.494,0.82,2.09,1.425
		c0.594,0.604,1.064,1.303,1.41,2.099c0.349,0.795,0.523,1.654,0.523,2.58v0.587c0,0.204-0.028,0.396-0.072,0.586h-6.508h-4.865
		c0.122,0.64,0.329,1.232,0.626,1.774c0.297,0.542,0.664,1.017,1.091,1.419c0.429,0.402,0.911,0.713,1.45,0.94
		c0.536,0.225,1.1,0.335,1.697,0.335v0.896c-0.907,0-1.765-0.172-2.575-0.517c-0.811-0.344-1.511-0.814-2.108-1.409
		c-0.596-0.594-1.067-1.283-1.411-2.066c-0.348-0.786-0.518-1.628-0.518-2.531c0-0.927,0.169-1.791,0.518-2.586
		c0.344-0.798,0.815-1.498,1.411-2.104c0.597-0.606,1.298-1.082,2.108-1.427C430.63,209.584,431.488,209.412,432.396,209.412
		 M437.328,215.489c-0.047-0.713-0.214-1.387-0.501-2.02c-0.287-0.63-0.649-1.18-1.09-1.643c-0.441-0.464-0.946-0.834-1.52-1.109
		c-0.568-0.272-1.181-0.413-1.821-0.413c-0.644,0-1.257,0.14-1.842,0.413c-0.584,0.274-1.096,0.645-1.535,1.109
		c-0.442,0.463-0.799,1.013-1.074,1.643c-0.276,0.633-0.446,1.307-0.518,2.02H437.328z"/>
	<path fill="none" stroke="#59A635" stroke-width="0.1222" stroke-miterlimit="10" d="M432.396,209.412
		c0.905,0,1.755,0.173,2.557,0.517c0.793,0.345,1.494,0.82,2.09,1.425c0.594,0.604,1.064,1.303,1.41,2.099
		c0.349,0.795,0.523,1.654,0.523,2.58v0.587c0,0.204-0.028,0.396-0.072,0.586h-6.508h-4.865c0.122,0.64,0.329,1.232,0.626,1.774
		c0.297,0.542,0.664,1.017,1.091,1.419c0.429,0.402,0.911,0.713,1.45,0.94c0.536,0.225,1.1,0.335,1.697,0.335v0.896
		c-0.907,0-1.765-0.172-2.575-0.517c-0.811-0.344-1.511-0.814-2.108-1.409c-0.596-0.594-1.067-1.283-1.411-2.066
		c-0.348-0.786-0.518-1.628-0.518-2.531c0-0.927,0.169-1.791,0.518-2.586c0.344-0.798,0.815-1.498,1.411-2.104
		c0.597-0.606,1.298-1.082,2.108-1.427C430.63,209.584,431.488,209.412,432.396,209.412z M437.328,215.489
		c-0.047-0.713-0.214-1.387-0.501-2.02c-0.287-0.63-0.649-1.18-1.09-1.643c-0.441-0.464-0.946-0.834-1.52-1.109
		c-0.568-0.272-1.181-0.413-1.821-0.413c-0.644,0-1.257,0.14-1.842,0.413c-0.584,0.274-1.096,0.645-1.535,1.109
		c-0.442,0.463-0.799,1.013-1.074,1.643c-0.276,0.633-0.446,1.307-0.518,2.02H437.328z"/>
	<path fill="#59A635" d="M446.107,222.426c-0.839,0-1.631-0.096-2.387-0.287c-0.755-0.191-1.409-0.459-1.974-0.802
		c-0.56-0.346-1-0.746-1.325-1.199c-0.321-0.454-0.486-0.942-0.486-1.467l1.646-0.07v0.07c0,0.834,0.417,1.51,1.25,2.02
		c0.836,0.513,1.921,0.771,3.254,0.771c1.359,0,2.458-0.258,3.291-0.771c0.833-0.511,1.253-1.186,1.253-2.02
		c0-0.808-0.42-1.458-1.253-1.948c-0.833-0.487-1.932-0.732-3.291-0.732v-0.035c-0.786,0-1.523-0.084-2.215-0.251
		c-0.694-0.167-1.295-0.399-1.807-0.698c-0.511-0.299-0.917-0.643-1.215-1.037c-0.296-0.395-0.446-0.816-0.446-1.269
		c0-0.452,0.15-0.876,0.457-1.27c0.303-0.39,0.714-0.738,1.232-1.036c0.519-0.297,1.123-0.538,1.814-0.716
		c0.691-0.179,1.429-0.268,2.215-0.268c0.789,0,1.532,0.088,2.237,0.268c0.702,0.178,1.316,0.418,1.839,0.716
		c0.523,0.298,0.942,0.646,1.253,1.036c0.311,0.394,0.463,0.817,0.463,1.27h-1.61c0-0.714-0.37-1.278-1.125-1.699
		c-0.753-0.415-1.766-0.625-3.058-0.625c-1.265,0-2.256,0.21-2.983,0.625c-0.729,0.42-1.091,0.985-1.091,1.699
		c0,0.713,0.362,1.277,1.091,1.68c0.727,0.407,1.718,0.608,2.983,0.608c0.859,0,1.664,0.097,2.414,0.287
		c0.752,0.191,1.401,0.458,1.951,0.805c0.546,0.346,0.981,0.738,1.303,1.178c0.322,0.443,0.483,0.913,0.483,1.413
		c0,0.526-0.161,1.013-0.484,1.468c-0.324,0.453-0.76,0.853-1.308,1.198c-0.549,0.343-1.201,0.611-1.955,0.803
		C447.771,222.331,446.965,222.426,446.107,222.426"/>
	<path fill="none" stroke="#59A635" stroke-width="0.1222" stroke-miterlimit="10" d="M446.107,222.426
		c-0.839,0-1.631-0.096-2.387-0.287c-0.755-0.191-1.409-0.459-1.974-0.802c-0.56-0.346-1-0.746-1.325-1.199
		c-0.321-0.454-0.486-0.942-0.486-1.467l1.646-0.07v0.07c0,0.834,0.417,1.51,1.25,2.02c0.836,0.513,1.921,0.771,3.254,0.771
		c1.359,0,2.458-0.258,3.291-0.771c0.833-0.511,1.253-1.186,1.253-2.02c0-0.808-0.42-1.458-1.253-1.948
		c-0.833-0.487-1.932-0.732-3.291-0.732v-0.035c-0.786,0-1.523-0.084-2.215-0.251c-0.694-0.167-1.295-0.399-1.807-0.698
		c-0.511-0.299-0.917-0.643-1.215-1.037c-0.296-0.395-0.446-0.816-0.446-1.269c0-0.452,0.15-0.876,0.457-1.27
		c0.303-0.39,0.714-0.738,1.232-1.036c0.519-0.297,1.123-0.538,1.814-0.716c0.691-0.179,1.429-0.268,2.215-0.268
		c0.789,0,1.532,0.088,2.237,0.268c0.702,0.178,1.316,0.418,1.839,0.716c0.523,0.298,0.942,0.646,1.253,1.036
		c0.311,0.394,0.463,0.817,0.463,1.27h-1.61c0-0.714-0.37-1.278-1.125-1.699c-0.753-0.415-1.766-0.625-3.058-0.625
		c-1.265,0-2.256,0.21-2.983,0.625c-0.729,0.42-1.091,0.985-1.091,1.699c0,0.713,0.362,1.277,1.091,1.68
		c0.727,0.407,1.718,0.608,2.983,0.608c0.859,0,1.664,0.097,2.414,0.287c0.752,0.191,1.401,0.458,1.951,0.805
		c0.546,0.346,0.981,0.738,1.303,1.178c0.322,0.443,0.483,0.913,0.483,1.413c0,0.526-0.161,1.013-0.484,1.468
		c-0.324,0.453-0.76,0.853-1.308,1.198c-0.549,0.343-1.201,0.611-1.955,0.803C447.771,222.331,446.965,222.426,446.107,222.426z"/>
	<path fill="#E284AD" d="M404.669,202.09c0,0,27.839-19.344,3.771-44.535c0,0,15.879-7.011,24.753,10.404
		c0,0,7.944,15.267-10.835,27.176C422.358,195.136,414.01,200.423,404.669,202.09"/>
	<path fill="#E284AD" d="M386.438,180.847c0,0,12.241,21.641,28.371,3.909C414.809,184.756,390.757,229.16,386.438,180.847"/>
	<path fill="#E284AD" d="M386.292,193.438c0,0-7.577-27.42,3.465-31.449c0,0,5.604-3.639,20.344,2.712
		c0,0-10.561-17.981-26.292-10.178C383.809,154.522,366.403,162.734,386.292,193.438"/>
	<path fill="#E284AD" d="M393.729,184.821c0,0-7.613-15.707,5.222-15.76c0,0-6.851-6.423-10.502-1.737
		C388.449,167.324,382.662,175.661,393.729,184.821"/>
	<path fill="#E284AD" d="M394.707,179.927c0,0,7.627,7.65,11.255-2.729c0,0,1.418,2.074-2.201,9.119
		C403.761,186.318,400.536,193.577,394.707,179.927"/>
	<path fill="#E284AD" d="M394.734,163.545c0,0,21.4,6.722,11.285,24.25c0,0,13.494-7.67,7.752-15.927
		C413.771,171.867,407.346,162.506,394.734,163.545"/>
	<path fill="#E284AD" d="M398.088,178.574c0,0,0.678-5.089,6.561-4.327C404.649,174.247,396.308,167.639,398.088,178.574"/>
	<path fill="#9A9A9A" d="M713.836,336.615l-0.316-0.092c-0.008-0.004-0.013-0.011-0.008-0.014c0.003-0.009,0.008-0.011,0.015-0.009
		c0.002-0.003,0.002-0.003,0.002,0L713.836,336.615z"/>
	<path fill="#9A9A9A" d="M707.729,335.252l-0.649-0.117c-0.143-0.025-0.239-0.16-0.214-0.302c0.023-0.143,0.161-0.238,0.304-0.213
		c0.008,0,0.015,0,0.018,0.004l0.64,0.162c0.126,0.033,0.206,0.161,0.171,0.29C707.969,335.197,707.85,335.273,707.729,335.252"/>
	<path fill="#9A9A9A" d="M701.227,334.217l-0.651-0.084c-0.245-0.032-0.42-0.258-0.388-0.505c0.03-0.242,0.257-0.417,0.503-0.385
		c0.01,0,0.02,0,0.026,0.005l0.646,0.123c0.233,0.044,0.387,0.266,0.342,0.5C701.664,334.098,701.452,334.247,701.227,334.217"/>
	<path fill="#9A9A9A" d="M694.691,333.505l-0.654-0.057c-0.353-0.029-0.612-0.335-0.582-0.687c0.031-0.349,0.34-0.61,0.688-0.58
		c0.01,0,0.024,0.003,0.035,0.003l0.653,0.095c0.337,0.047,0.572,0.362,0.522,0.695
		C695.307,333.302,695.012,333.532,694.691,333.505"/>
	<path fill="#9A9A9A" d="M688.134,333.06l-0.66-0.034c-0.451-0.021-0.801-0.406-0.779-0.86c0.021-0.453,0.404-0.803,0.859-0.779
		c0.014,0,0.03,0,0.047,0.003l0.654,0.069c0.441,0.048,0.762,0.44,0.715,0.882C688.928,332.764,688.557,333.079,688.134,333.06"/>
	<path fill="#9A9A9A" d="M681.572,332.792l-0.66-0.02c-0.518-0.013-0.929-0.442-0.919-0.965c0.016-0.519,0.445-0.931,0.967-0.916
		c0.009,0,0.022,0,0.029,0l0.659,0.041c0.513,0.029,0.903,0.473,0.871,0.984C682.493,332.414,682.068,332.801,681.572,332.792"/>
	<path fill="#9A9A9A" d="M675.004,332.722l-0.659,0.004c-0.583,0.003-1.058-0.466-1.06-1.051c-0.004-0.58,0.464-1.056,1.048-1.059
		c0.01-0.005,0.024-0.005,0.037,0l0.656,0.017c0.579,0.016,1.034,0.496,1.017,1.075
		C676.025,332.268,675.565,332.719,675.004,332.722"/>
	<path fill="#9A9A9A" d="M668.439,332.849l-0.658,0.021c-0.645,0.022-1.187-0.482-1.209-1.121c-0.021-0.649,0.481-1.191,1.125-1.213
		c0.012-0.005,0.03,0,0.043,0l0.656-0.005c0.642,0,1.158,0.521,1.16,1.163C669.554,332.319,669.06,332.823,668.439,332.849"/>
	<path fill="#9A9A9A" d="M661.882,333.161l-0.659,0.039c-0.707,0.044-1.314-0.495-1.358-1.201c-0.045-0.706,0.493-1.317,1.201-1.359
		c0.012,0,0.029,0,0.043,0l0.659-0.019c0.703-0.019,1.289,0.532,1.308,1.233C663.092,332.543,662.561,333.114,661.882,333.161"/>
	<path fill="#9A9A9A" d="M655.335,333.639l-0.656,0.059c-0.77,0.065-1.448-0.502-1.516-1.271c-0.067-0.771,0.502-1.443,1.271-1.51
		c0.013-0.008,0.034-0.008,0.049-0.008l0.657-0.033c0.764-0.043,1.416,0.546,1.456,1.313
		C656.636,332.936,656.074,333.574,655.335,333.639"/>
	<path fill="#9A9A9A" d="M648.797,334.243l-0.653,0.065c-0.806,0.084-1.523-0.502-1.605-1.304c-0.081-0.806,0.502-1.517,1.306-1.605
		c0.007,0,0.02,0,0.024,0l0.654-0.058c0.803-0.068,1.509,0.527,1.576,1.326C650.166,333.458,649.583,334.159,648.797,334.243"/>
	<path fill="#9A9A9A" d="M642.276,334.98l-0.653,0.083c-0.835,0.104-1.595-0.482-1.699-1.317c-0.106-0.836,0.486-1.594,1.319-1.696
		c0.006-0.004,0.021-0.007,0.025-0.007l0.657-0.068c0.83-0.091,1.577,0.512,1.665,1.338
		C643.68,334.14,643.093,334.877,642.276,334.98"/>
	<path fill="#9A9A9A" d="M635.769,335.867l-0.649,0.093c-0.861,0.135-1.665-0.465-1.793-1.325c-0.128-0.863,0.469-1.666,1.329-1.793
		c0.008,0,0.021-0.004,0.026-0.004l0.657-0.082c0.861-0.118,1.651,0.492,1.76,1.354
		C637.211,334.961,636.618,335.742,635.769,335.867"/>
	<path fill="#9A9A9A" d="M629.281,336.868l-0.649,0.108c-0.877,0.141-1.706-0.449-1.851-1.332c-0.144-0.879,0.453-1.706,1.33-1.851
		h0.01l0.653-0.104c0.878-0.138,1.7,0.462,1.839,1.342C630.75,335.905,630.156,336.724,629.281,336.868"/>
	<path fill="#9A9A9A" d="M622.812,337.985l-0.648,0.117c-0.885,0.166-1.735-0.418-1.896-1.309c-0.164-0.885,0.42-1.734,1.308-1.897
		h0.009l0.648-0.121c0.886-0.154,1.731,0.437,1.89,1.323C624.278,336.979,623.692,337.826,622.812,337.985"/>
	<path fill="#9A9A9A" d="M616.365,339.227l-0.649,0.135c-0.891,0.181-1.761-0.396-1.943-1.289c-0.182-0.893,0.394-1.765,1.287-1.95
		h0.011l0.645-0.127c0.896-0.177,1.761,0.403,1.936,1.296C617.83,338.186,617.252,339.049,616.365,339.227"/>
	<path fill="#9A9A9A" d="M609.942,340.591l-0.646,0.141c-0.902,0.206-1.792-0.365-1.992-1.267c-0.203-0.898,0.365-1.793,1.265-1.992
		l0.012-0.004l0.644-0.138c0.899-0.192,1.789,0.378,1.982,1.281C611.401,339.506,610.835,340.392,609.942,340.591"/>
	<path fill="#9A9A9A" d="M603.527,342.042l-0.645,0.147c-0.89,0.207-1.778-0.35-1.98-1.236c-0.207-0.889,0.341-1.77,1.223-1.983
		l0.646-0.154c0.888-0.209,1.781,0.343,1.991,1.229c0.21,0.89-0.338,1.781-1.226,1.992L603.527,342.042z"/>
	<path fill="#9A9A9A" d="M597.035,343.463l-0.647,0.131c-0.885,0.181-1.747-0.393-1.925-1.275c-0.181-0.878,0.387-1.735,1.263-1.92
		l0.646-0.138c0.887-0.186,1.751,0.381,1.936,1.267c0.187,0.884-0.38,1.747-1.262,1.936H597.035L597.035,343.463z"/>
	<path fill="#9A9A9A" d="M590.5,344.702l-0.652,0.111c-0.877,0.149-1.713-0.438-1.863-1.316c-0.15-0.876,0.436-1.704,1.307-1.859
		l0.654-0.12c0.876-0.157,1.715,0.432,1.872,1.307c0.154,0.883-0.43,1.721-1.308,1.878H590.5L590.5,344.702z"/>
	<path fill="#9A9A9A" d="M583.921,345.717l-0.656,0.088c-0.867,0.108-1.656-0.497-1.771-1.367c-0.11-0.858,0.488-1.642,1.34-1.767
		l0.652-0.099c0.866-0.129,1.674,0.473,1.8,1.341c0.129,0.868-0.471,1.675-1.338,1.8
		C583.942,345.713,583.928,345.717,583.921,345.717"/>
	<path fill="#9A9A9A" d="M577.297,346.454l-0.658,0.059c-0.833,0.076-1.575-0.544-1.648-1.383c-0.073-0.823,0.531-1.557,1.356-1.647
		l0.654-0.069c0.84-0.088,1.594,0.519,1.681,1.361c0.092,0.836-0.517,1.589-1.357,1.677
		C577.319,346.451,577.305,346.454,577.297,346.454"/>
	<path fill="#9A9A9A" d="M570.643,346.906l-0.662,0.024c-0.805,0.032-1.488-0.596-1.518-1.401c-0.032-0.799,0.581-1.47,1.375-1.517
		l0.659-0.041c0.807-0.048,1.504,0.565,1.553,1.376c0.049,0.809-0.569,1.506-1.381,1.553
		C570.662,346.902,570.651,346.906,570.643,346.906"/>
	<path fill="#9A9A9A" d="M563.964,347.013l-0.663-0.015c-0.771-0.019-1.385-0.66-1.364-1.433c0.019-0.753,0.634-1.354,1.379-1.365
		l0.666-0.007c0.778-0.01,1.415,0.616,1.423,1.398c0.01,0.771-0.612,1.409-1.393,1.421
		C563.999,347.013,563.978,347.013,563.964,347.013"/>
	<path fill="#9A9A9A" d="M557.282,346.666l-0.658-0.058c-0.708-0.066-1.227-0.687-1.162-1.394c0.061-0.688,0.659-1.201,1.345-1.165
		l0.662,0.032c0.714,0.043,1.26,0.654,1.22,1.364c-0.039,0.715-0.646,1.26-1.361,1.225
		C557.315,346.669,557.294,346.666,557.282,346.666"/>
	<path fill="#9A9A9A" d="M550.637,345.845l-0.654-0.112c-0.636-0.105-1.063-0.708-0.955-1.347c0.103-0.618,0.684-1.039,1.303-0.958
		l0.656,0.086c0.646,0.084,1.101,0.68,1.013,1.321c-0.085,0.646-0.676,1.102-1.322,1.014
		C550.664,345.849,550.647,345.845,550.637,345.845"/>
	<path fill="#9A9A9A" d="M544.078,344.472l-0.64-0.171c-0.563-0.149-0.899-0.727-0.749-1.285c0.144-0.551,0.698-0.883,1.248-0.762
		l0.644,0.148c0.574,0.131,0.934,0.701,0.805,1.274c-0.129,0.569-0.699,0.93-1.274,0.803
		C544.102,344.475,544.087,344.472,544.078,344.472"/>
	<path fill="#9A9A9A" d="M537.68,342.465l-0.619-0.236c-0.484-0.181-0.727-0.726-0.544-1.21c0.18-0.467,0.704-0.714,1.178-0.55
		l0.627,0.21c0.494,0.172,0.759,0.707,0.593,1.205c-0.172,0.498-0.709,0.759-1.205,0.589
		C537.703,342.469,537.688,342.469,537.68,342.465"/>
	<path fill="#9A9A9A" d="M531.542,339.774l-0.585-0.309c-0.395-0.21-0.545-0.699-0.339-1.099c0.205-0.382,0.67-0.533,1.059-0.356
		l0.602,0.272c0.416,0.193,0.601,0.69,0.407,1.104c-0.191,0.416-0.683,0.599-1.099,0.409
		C531.573,339.786,531.554,339.783,531.542,339.774"/>
	<path fill="#9A9A9A" d="M525.806,336.351l-0.546-0.378c-0.285-0.19-0.359-0.576-0.167-0.863c0.19-0.271,0.56-0.349,0.837-0.182
		l0.57,0.342c0.302,0.182,0.401,0.581,0.216,0.883c-0.183,0.304-0.576,0.399-0.881,0.217
		C525.826,336.366,525.816,336.358,525.806,336.351"/>
	<path fill="#9A9A9A" d="M520.478,332.367l-0.508-0.418c-0.188-0.152-0.214-0.428-0.061-0.614c0.145-0.174,0.407-0.205,0.593-0.072
		l0.534,0.388c0.2,0.15,0.245,0.432,0.098,0.638c-0.147,0.202-0.433,0.242-0.634,0.096
		C520.495,332.38,520.484,332.372,520.478,332.367"/>
	<path fill="#9A9A9A" d="M515.45,328.075l-0.496-0.439c-0.101-0.087-0.109-0.236-0.021-0.339c0.083-0.092,0.227-0.104,0.325-0.031
		l0.529,0.399c0.115,0.087,0.14,0.254,0.049,0.373c-0.088,0.113-0.251,0.135-0.368,0.048
		C515.461,328.082,515.456,328.078,515.45,328.075"/>
	<path fill="#9A9A9A" d="M510.296,323.947l-0.28-0.181l0.292,0.159c0.005,0.004,0.009,0.011,0.005,0.018
		c-0.003,0.004-0.01,0.008-0.016,0.004H510.296z"/>
	<path fill="#9A9A9A" d="M313.603,231.542l0.313,0.113c0.008,0.003,0.012,0.011,0.01,0.017c-0.006,0.005-0.012,0.011-0.018,0.007
		h-0.002L313.603,231.542z"/>
	<path fill="#9A9A9A" d="M319.604,233.334l0.639,0.159c0.14,0.036,0.225,0.18,0.189,0.32c-0.033,0.139-0.176,0.225-0.317,0.189
		c-0.008,0-0.014-0.002-0.02-0.005l-0.625-0.208c-0.127-0.041-0.191-0.177-0.152-0.301
		C319.361,233.37,319.483,233.302,319.604,233.334"/>
	<path fill="#9A9A9A" d="M326.012,234.824l0.646,0.13c0.245,0.05,0.401,0.286,0.353,0.529c-0.053,0.242-0.289,0.399-0.533,0.35
		c-0.005,0-0.015-0.004-0.023-0.005l-0.636-0.169c-0.228-0.058-0.366-0.294-0.307-0.523
		C325.567,234.914,325.79,234.779,326.012,234.824"/>
	<path fill="#9A9A9A" d="M332.481,235.998l0.653,0.101c0.348,0.057,0.585,0.382,0.528,0.727c-0.054,0.349-0.379,0.583-0.727,0.53
		c-0.009-0.004-0.022-0.005-0.035-0.007l-0.644-0.138c-0.333-0.073-0.543-0.401-0.473-0.734
		C331.855,236.157,332.162,235.946,332.481,235.998"/>
	<path fill="#9A9A9A" d="M338.991,236.906l0.657,0.077c0.452,0.055,0.773,0.464,0.719,0.914c-0.053,0.452-0.465,0.773-0.913,0.72
		c-0.019-0.002-0.033-0.004-0.048-0.008l-0.645-0.113c-0.438-0.079-0.73-0.495-0.654-0.932
		C338.182,237.142,338.574,236.856,338.991,236.906"/>
	<path fill="#9A9A9A" d="M345.52,237.638l0.656,0.063c0.518,0.051,0.896,0.509,0.846,1.027c-0.051,0.518-0.508,0.896-1.025,0.847
		c-0.009,0-0.025-0.001-0.034-0.004l-0.654-0.085c-0.507-0.067-0.863-0.534-0.798-1.043
		C344.575,237.947,345.023,237.591,345.52,237.638"/>
	<path fill="#9A9A9A" d="M352.064,238.171l0.658,0.043c0.582,0.038,1.021,0.539,0.985,1.121c-0.038,0.582-0.539,1.022-1.119,0.984
		c-0.013-0.001-0.028-0.003-0.037-0.003l-0.659-0.065c-0.572-0.059-0.992-0.569-0.935-1.142
		C351.014,238.549,351.509,238.136,352.064,238.171"/>
	<path fill="#9A9A9A" d="M358.623,238.508l0.658,0.024c0.645,0.022,1.15,0.563,1.124,1.207c-0.022,0.647-0.564,1.151-1.209,1.128
		c-0.012,0-0.027,0-0.039,0l-0.658-0.05c-0.637-0.043-1.118-0.598-1.071-1.235C357.471,238.959,358.004,238.487,358.623,238.508"/>
	<path fill="#9A9A9A" d="M365.188,238.662l0.658,0.005c0.709,0.008,1.276,0.585,1.27,1.296c-0.005,0.707-0.585,1.276-1.294,1.27
		c-0.012,0-0.029,0-0.045,0l-0.658-0.03c-0.7-0.032-1.245-0.625-1.213-1.326C363.935,239.191,364.503,238.656,365.188,238.662"/>
	<path fill="#9A9A9A" d="M371.751,238.643l0.66-0.01c0.771-0.013,1.405,0.602,1.417,1.373c0.012,0.772-0.6,1.408-1.371,1.42
		c-0.017,0-0.036,0-0.048,0l-0.66-0.011c-0.766-0.015-1.375-0.647-1.36-1.411C370.403,239.254,371.01,238.656,371.751,238.643"/>
	<path fill="#9A9A9A" d="M378.313,238.507l0.658-0.02c0.809-0.027,1.481,0.607,1.508,1.415c0.025,0.806-0.606,1.481-1.413,1.506
		c-0.005,0-0.022,0.001-0.029,0.001l-0.656,0.008c-0.804,0.011-1.465-0.629-1.476-1.435
		C376.895,239.189,377.521,238.535,378.313,238.507"/>
	<path fill="#9A9A9A" d="M384.87,238.23l0.66-0.037c0.838-0.046,1.556,0.596,1.599,1.436c0.048,0.838-0.595,1.555-1.434,1.602
		c-0.005,0-0.018,0-0.026,0l-0.657,0.025c-0.838,0.031-1.54-0.621-1.571-1.456C383.409,238.972,384.048,238.275,384.87,238.23"/>
	<path fill="#9A9A9A" d="M391.423,237.806l0.659-0.05c0.866-0.068,1.625,0.583,1.69,1.454c0.067,0.868-0.584,1.626-1.453,1.692
		c-0.005,0.003-0.018,0.003-0.023,0.004l-0.662,0.039c-0.866,0.05-1.61-0.612-1.659-1.48
		C389.922,238.61,390.571,237.873,391.423,237.806"/>
	<path fill="#9A9A9A" d="M397.965,237.265l0.659-0.06c0.885-0.081,1.669,0.573,1.749,1.458c0.08,0.886-0.572,1.67-1.458,1.75
		l-0.009,0.001l-0.658,0.056c-0.888,0.076-1.665-0.582-1.742-1.466C396.433,238.125,397.085,237.346,397.965,237.265"/>
	<path fill="#9A9A9A" d="M404.499,236.609l0.654-0.073c0.896-0.101,1.703,0.544,1.804,1.441c0.098,0.894-0.546,1.7-1.442,1.799
		l-0.007,0.003l-0.656,0.069c-0.896,0.092-1.695-0.554-1.792-1.451C402.966,237.507,403.609,236.709,404.499,236.609"/>
	<path fill="#9A9A9A" d="M411.019,235.824l0.652-0.084c0.903-0.119,1.731,0.519,1.854,1.422c0.115,0.905-0.521,1.734-1.424,1.851
		l-0.009,0.002l-0.654,0.08c-0.903,0.114-1.728-0.528-1.841-1.431C409.486,236.764,410.119,235.941,411.019,235.824"/>
	<path fill="#9A9A9A" d="M417.524,234.919l0.65-0.099c0.915-0.135,1.764,0.492,1.901,1.405c0.134,0.913-0.495,1.762-1.407,1.898
		l-0.009,0.002l-0.654,0.092c-0.909,0.132-1.756-0.501-1.889-1.413C415.989,235.897,416.615,235.054,417.524,234.919"/>
	<path fill="#9A9A9A" d="M424.023,233.928l0.654-0.104c0.902-0.142,1.748,0.472,1.89,1.373c0.143,0.898-0.468,1.74-1.365,1.889
		l-0.65,0.107c-0.899,0.15-1.75-0.462-1.903-1.362c-0.148-0.903,0.464-1.755,1.364-1.901L424.023,233.928z"/>
	<path fill="#9A9A9A" d="M430.598,232.966l0.658-0.087c0.894-0.117,1.712,0.514,1.831,1.407c0.116,0.891-0.509,1.709-1.4,1.829
		l-0.654,0.089c-0.895,0.123-1.72-0.502-1.842-1.396c-0.124-0.896,0.504-1.718,1.397-1.842H430.598z"/>
	<path fill="#9A9A9A" d="M437.205,232.193l0.658-0.065c0.888-0.089,1.678,0.557,1.764,1.444c0.089,0.883-0.554,1.669-1.432,1.764
		l-0.658,0.069c-0.888,0.094-1.682-0.548-1.777-1.437c-0.093-0.886,0.552-1.68,1.437-1.775H437.205L437.205,232.193z"/>
	<path fill="#9A9A9A" d="M443.843,231.643l0.653-0.038c0.875-0.051,1.622,0.615,1.675,1.485c0.046,0.862-0.602,1.604-1.464,1.671
		l-0.653,0.05c-0.875,0.064-1.636-0.589-1.705-1.462c-0.066-0.875,0.588-1.637,1.461-1.704
		C443.817,231.646,443.834,231.643,443.843,231.643"/>
	<path fill="#9A9A9A" d="M450.498,231.376l0.66-0.013c0.842-0.016,1.536,0.656,1.548,1.496c0.015,0.831-0.643,1.517-1.468,1.548
		l-0.662,0.023c-0.839,0.027-1.548-0.631-1.58-1.472c-0.027-0.846,0.631-1.552,1.477-1.582
		C450.48,231.376,450.493,231.376,450.498,231.376"/>
	<path fill="#9A9A9A" d="M457.169,231.398l0.658,0.021c0.809,0.024,1.442,0.697,1.418,1.505c-0.023,0.798-0.686,1.428-1.479,1.418
		l-0.661-0.007c-0.813-0.009-1.461-0.677-1.45-1.488c0.009-0.81,0.675-1.46,1.485-1.451
		C457.147,231.397,457.164,231.398,457.169,231.398"/>
	<path fill="#9A9A9A" d="M463.836,231.762l0.659,0.064c0.771,0.07,1.333,0.752,1.26,1.522c-0.07,0.75-0.727,1.307-1.474,1.264
		l-0.659-0.041c-0.779-0.045-1.371-0.714-1.325-1.491c0.046-0.775,0.713-1.368,1.492-1.322
		C463.803,231.758,463.824,231.76,463.836,231.762"/>
	<path fill="#9A9A9A" d="M470.478,232.58l0.653,0.106c0.701,0.114,1.175,0.769,1.065,1.47c-0.112,0.685-0.747,1.153-1.429,1.067
		l-0.656-0.082c-0.709-0.09-1.213-0.737-1.123-1.444c0.09-0.71,0.738-1.213,1.446-1.123
		C470.445,232.574,470.466,232.578,470.478,232.58"/>
	<path fill="#9A9A9A" d="M477.049,233.87l0.643,0.156c0.625,0.152,1.012,0.782,0.862,1.408c-0.151,0.614-0.758,0.995-1.37,0.868
		l-0.652-0.131c-0.633-0.131-1.046-0.754-0.916-1.394c0.134-0.636,0.758-1.046,1.394-0.917
		C477.022,233.862,477.04,233.866,477.049,233.87"/>
	<path fill="#9A9A9A" d="M483.496,235.705l0.626,0.212c0.55,0.188,0.844,0.787,0.654,1.337c-0.181,0.537-0.758,0.828-1.297,0.667
		l-0.635-0.191c-0.563-0.169-0.879-0.764-0.709-1.325c0.168-0.565,0.762-0.88,1.325-0.71
		C483.47,235.695,483.487,235.701,483.496,235.705"/>
	<path fill="#9A9A9A" d="M489.736,238.156l0.6,0.277c0.471,0.217,0.674,0.773,0.457,1.244c-0.211,0.458-0.75,0.665-1.213,0.472
		l-0.607-0.258c-0.485-0.202-0.709-0.758-0.51-1.241c0.205-0.481,0.759-0.709,1.244-0.505
		C489.715,238.147,489.726,238.152,489.736,238.156"/>
	<path fill="#9A9A9A" d="M495.667,241.272l0.563,0.35c0.378,0.238,0.496,0.739,0.258,1.119c-0.23,0.368-0.706,0.488-1.078,0.283
		l-0.58-0.316c-0.405-0.222-0.554-0.725-0.33-1.128c0.219-0.403,0.723-0.551,1.126-0.331
		C495.637,241.256,495.655,241.265,495.667,241.272"/>
	<path fill="#9A9A9A" d="M501.149,245.093l0.517,0.411c0.27,0.212,0.317,0.606,0.103,0.875c-0.206,0.258-0.58,0.31-0.848,0.123
		l-0.542-0.381c-0.289-0.205-0.36-0.604-0.153-0.894c0.2-0.292,0.602-0.361,0.893-0.156
		C501.127,245.079,501.139,245.086,501.149,245.093"/>
	<path fill="#9A9A9A" d="M506.178,249.441l0.48,0.456c0.173,0.164,0.183,0.44,0.017,0.615c-0.16,0.166-0.422,0.181-0.594,0.033
		l-0.505-0.426c-0.192-0.161-0.217-0.447-0.055-0.639c0.162-0.194,0.446-0.215,0.637-0.055
		C506.166,249.431,506.173,249.436,506.178,249.441"/>
	<path fill="#59A635" d="M585.718,272.121c-0.054,1.907-2.343,4.053-2.343,4.053s-2.162-2.274-2.106-4.185
		c0.054-1.908,1.077-2.765,2.305-2.727C584.804,269.301,585.773,270.212,585.718,272.121"/>
	<path fill="#59A635" d="M580.982,281.84c0.056-1.906,2.344-4.056,2.344-4.056s2.166,2.274,2.108,4.186
		c-0.055,1.902-1.078,2.759-2.309,2.724C581.901,284.661,580.927,283.745,580.982,281.84"/>
	<path fill="#59A635" d="M580.326,272.499c1.627,1.004,2.338,4.055,2.338,4.055s-3.052,0.739-4.672-0.269
		c-1.628-1-1.855-2.309-1.208-3.36C577.426,271.879,578.7,271.499,580.326,272.499"/>
	<path fill="#59A635" d="M586.376,281.455c-1.627-0.998-2.338-4.055-2.338-4.055s3.048-0.734,4.675,0.272
		c1.626,1.002,1.856,2.312,1.211,3.357C589.275,282.08,587.998,282.46,586.376,281.455"/>
	<path fill="#59A635" d="M577.96,277.36c1.682-0.907,4.68,0.004,4.68,0.004s-0.888,3.006-2.568,3.913
		c-1.682,0.903-2.932,0.45-3.513-0.636C575.972,279.564,576.278,278.263,577.96,277.36"/>
	<path fill="#59A635" d="M588.74,276.6c-1.679,0.904-4.68-0.007-4.68-0.007s0.888-3.005,2.57-3.911
		c1.678-0.904,2.934-0.452,3.518,0.634C590.729,274.397,590.425,275.69,588.74,276.6"/>
	<path fill="#FFFFFF" d="M584.966,273.665c-0.036,1.3-1.602,2.768-1.602,2.768s-1.472-1.555-1.435-2.856
		c0.036-1.304,0.733-1.886,1.572-1.862C584.342,271.739,585.006,272.361,584.966,273.665"/>
	<path fill="#FFFFFF" d="M581.735,280.293c0.042-1.3,1.6-2.763,1.6-2.763s1.474,1.55,1.438,2.854
		c-0.035,1.299-0.736,1.884-1.573,1.861C582.363,282.215,581.698,281.594,581.735,280.293"/>
	<path fill="#FFFFFF" d="M581.29,273.92c1.111,0.684,1.59,2.769,1.59,2.769s-2.076,0.505-3.186-0.182
		c-1.108-0.683-1.263-1.577-0.826-2.296C579.305,273.497,580.177,273.238,581.29,273.92"/>
	<path fill="#FFFFFF" d="M585.413,280.035c-1.103-0.682-1.595-2.766-1.595-2.766s2.081-0.505,3.19,0.181
		c1.107,0.683,1.264,1.58,0.826,2.29C587.395,280.457,586.527,280.721,585.413,280.035"/>
	<path fill="#FFFFFF" d="M579.675,277.237c1.142-0.618,3.191,0.007,3.191,0.007s-0.606,2.053-1.752,2.669
		c-1.146,0.616-2.002,0.308-2.397-0.433C578.317,278.74,578.524,277.857,579.675,277.237"/>
	<path fill="#FFFFFF" d="M587.028,276.721c-1.143,0.615-3.192,0-3.192,0s0.604-2.059,1.755-2.674
		c1.146-0.621,1.999-0.31,2.395,0.431C588.382,275.218,588.18,276.1,587.028,276.721"/>
	<path fill="#E284AD" d="M585.289,277.037c-0.03,1.066-0.923,1.913-1.995,1.881c-1.067-0.033-1.911-0.922-1.882-1.993
		c0.031-1.071,0.926-1.917,1.995-1.888C584.476,275.069,585.32,275.963,585.289,277.037"/>
	<path fill="#59A635" d="M402.853,271.447c-0.562-1.853-2.307-2.997-4.327-2.688c-0.245-2.024-1.814-3.405-3.751-3.445
		c-1.938-0.045-3.566,1.267-3.895,3.287c-2.003-0.403-3.801,0.667-4.438,2.492c-0.64,1.831,0.104,3.79,1.92,4.72
		c-0.996,1.787-0.536,3.823,1.005,5.001c1.541,1.168,3.63,1.069,5.078-0.371c1.391,1.498,3.473,1.691,5.065,0.588
		c1.589-1.107,2.14-3.122,1.22-4.948C402.584,275.226,403.408,273.305,402.853,271.447"/>
	<path fill="#FFFFFF" d="M399.631,272.245c-0.344-1.129-1.407-1.821-2.64-1.638c-0.144-1.233-1.105-2.075-2.286-2.105
		c-1.184-0.024-2.175,0.774-2.375,2.004c-1.225-0.24-2.315,0.41-2.706,1.525c-0.386,1.119,0.062,2.309,1.171,2.88
		c-0.606,1.084-0.329,2.33,0.613,3.045c0.941,0.719,2.212,0.652,3.098-0.223c0.844,0.916,2.113,1.028,3.086,0.357
		c0.972-0.673,1.307-1.907,0.745-3.021C399.467,274.549,399.971,273.382,399.631,272.245"/>
	<path fill="#E284AD" d="M396.611,273.538c-0.024,1.111-0.944,1.993-2.057,1.968c-1.11-0.022-1.993-0.943-1.971-2.059
		c0.024-1.111,0.944-1.995,2.056-1.967C395.756,271.497,396.635,272.423,396.611,273.538"/>
	<path fill="#D40976" d="M336.28,325.878c-0.623,0.438-1.2,0.497-1.728,0.192c-0.529-0.316-0.919-0.794-1.165-1.453
		c-0.25-0.653-0.326-1.335-0.235-2.05c0.096-0.717,0.451-1.293,1.073-1.732c0.499-0.309,1.01-0.664,1.541-1.064
		c0.526-0.413,1.04-0.859,1.539-1.357l1.4-1.307c1.058-1.057,2.084-2.208,3.083-3.453c0.992-1.248,1.925-2.504,2.798-3.779
		c0.87-1.277,1.678-2.482,2.426-3.638c0.746-1.15,1.399-2.196,1.958-3.124c3.547-6.038,6.595-12.322,9.146-18.855
		c2.55-6.532,5.071-13.005,7.558-19.414c0.874-2.174,1.666-4.368,2.383-6.575c0.711-2.212,1.537-4.376,2.472-6.487
		c0.747-1.248,1.646-1.994,2.707-2.242c1.057-0.247,2.178,0.061,3.358,0.935c0.625,0.559,1.011,1.275,1.169,2.146
		c0.153,0.872,0.198,1.773,0.139,2.706c-0.063,0.935-0.185,1.837-0.373,2.706c-0.187,0.876-0.31,1.619-0.372,2.24
		c-0.437,3.424-0.903,6.815-1.401,10.172c-0.498,3.361-0.966,6.757-1.401,10.176c-0.185,1.555-0.452,3.639-0.792,6.252
		c-0.346,2.614-0.64,5.445-0.885,8.494c2.55-1.248,4.977-2.362,7.277-3.361c2.303-0.994,4.448-1.868,6.439-2.613
		c0.623-0.247,1.168-0.269,1.634-0.042c0.468,0.216,0.793,0.507,0.981,0.881c0.188,0.375,0.216,0.813,0.093,1.304
		c-0.125,0.505-0.467,0.904-1.027,1.217c-2.738,1.623-5.396,3.267-7.978,4.947c-2.584,1.673-5.181,3.358-7.792,5.039
		c0,3.05,0.199,5.88,0.607,8.492c0.403,2.616,1.196,4.606,2.379,5.968c0.499,0.628,1.151,1.063,1.96,1.313
		c0.805,0.246,1.554,0.56,2.238,0.934c0.498,0.369,0.808,0.762,0.933,1.165c0.126,0.406,0.126,0.794,0,1.164
		c-0.125,0.374-0.389,0.669-0.792,0.89c-0.408,0.221-0.888,0.323-1.448,0.323c-0.932-0.496-1.9-0.9-2.893-1.213
		c-0.997-0.313-1.928-0.773-2.802-1.394c-0.806-0.566-1.508-1.419-2.098-2.566c-0.591-1.154-1.072-2.399-1.448-3.735
		c-0.37-1.335-0.684-2.724-0.933-4.153c-0.249-1.434-0.434-2.771-0.56-4.012c-1.182,0.748-2.349,1.488-3.499,2.236
		c-1.153,0.745-2.319,1.464-3.5,2.146c-3.859,2.305-7.917,4.828-12.18,7.561C344.01,320.593,340.014,323.269,336.28,325.878
		 M368.103,277.444c-2.05,4.857-4.198,9.66-6.438,14.42c-2.24,4.758-4.822,9.314-7.746,13.675c4.166-2.618,8.524-5.071,13.067-7.378
		c-0.128-3.546-0.065-7.013,0.184-10.399C367.419,284.37,367.733,280.931,368.103,277.444"/>
	<path fill="#D40976" d="M386.303,290.512c0.997-1.435,1.85-2.04,2.566-1.819c0.715,0.219,1.074,0.949,1.074,2.194
		c-0.497,2.795-0.965,5.474-1.399,8.021c-0.437,2.553-0.764,4.793-0.981,6.721c-0.217,1.927-0.278,3.5-0.187,4.711
		c0.094,1.214,0.482,1.855,1.167,1.912v0.096c0.807,0.313,1.803,0.393,2.986,0.232c1.181-0.156,2.409-0.494,3.685-1.026
		c1.277-0.528,2.533-1.179,3.781-1.957c1.243-0.782,2.363-1.664,3.36-2.665c0.559-0.186,1.057-0.216,1.49-0.09
		c0.436,0.126,0.78,0.344,1.03,0.653c0.245,0.312,0.374,0.702,0.374,1.168c0,0.465-0.19,0.919-0.562,1.351
		c-4.418,3.55-8.167,5.946-11.247,7.184c-3.078,1.245-5.566,1.681-7.465,1.311c-1.899-0.37-3.236-1.383-4.014-3.031
		c-0.777-1.647-1.104-3.562-0.979-5.748c0.311-4.04,0.964-7.538,1.961-10.491C383.937,296.281,385.056,293.373,386.303,290.512"/>
	<path fill="#D40976" d="M406.555,292.095c0.747-1.491,1.351-2.645,1.818-3.452c0.468-0.807,0.856-1.35,1.167-1.634
		c0.312-0.279,0.561-0.37,0.749-0.279c0.186,0.095,0.339,0.265,0.466,0.511c0.431,0.748,0.666,1.638,0.7,2.665
		c0.029,1.025-0.049,2.164-0.235,3.402c-0.186,1.248-0.449,2.574-0.792,3.971c-0.344,1.399-0.702,2.814-1.074,4.24
		c0.747-1.426,1.478-2.871,2.193-4.334c0.715-1.464,1.476-2.851,2.288-4.154c0.433-0.682,0.945-1.591,1.539-2.712
		c0.59-1.113,1.275-2.188,2.052-3.216c0.776-1.026,1.634-1.88,2.565-2.566c0.934-0.687,1.963-0.93,3.083-0.744
		c0.683,0.186,1.212,0.399,1.586,0.649c0.372,0.252,0.746,0.684,1.121,1.308c0.619,1.311,0.9,2.693,0.839,4.156
		c-0.063,1.464-0.25,2.938-0.563,4.43c-0.312,1.492-0.667,2.991-1.072,4.479c-0.404,1.496-0.638,2.93-0.699,4.295l5.786-9.333
		c0.435-0.744,0.962-1.271,1.587-1.59c0.619-0.31,1.244-0.443,1.865-0.418c0.623,0.028,1.184,0.285,1.682,0.747
		c0.499,0.469,0.87,1.138,1.12,2.008c0,1.124-0.093,2.491-0.28,4.107c-0.184,1.62-0.314,3.234-0.375,4.848
		c-0.062,1.624,0.015,3.182,0.234,4.669c0.216,1.494,0.701,2.648,1.446,3.458c1.494-0.186,2.973-0.905,4.433-2.15
		c1.46-1.242,2.814-2.722,4.06-4.433c1.246-1.713,2.348-3.483,3.315-5.318c0.964-1.829,1.693-3.408,2.195-4.714
		c0.555-0.996,1.287-1.352,2.19-1.075c0.902,0.279,1.353,0.975,1.353,2.101c-1.37,4.172-3.125,7.81-5.273,10.921
		c-2.146,3.111-4.899,6.132-8.258,9.053c-0.623,0.502-1.431,0.933-2.426,1.304c-0.999,0.378-2.18,0.313-3.55-0.185
		c-0.994-0.374-1.819-0.943-2.471-1.729c-0.652-0.771-1.182-1.661-1.587-2.652c-0.406-1-0.714-2.027-0.933-3.085
		c-0.218-1.057-0.361-2.023-0.42-2.894c-0.496,0.87-1.041,1.727-1.632,2.57c-0.592,0.834-1.246,1.596-1.96,2.287
		c-0.717,0.682-1.509,1.228-2.381,1.629c-0.873,0.406-1.835,0.61-2.891,0.61c-0.874-0.127-1.573-0.377-2.101-0.751
		c-0.531-0.367-1.013-0.963-1.448-1.77c-0.496-1.741-0.744-3.467-0.744-5.179c0-1.715,0.123-3.409,0.375-5.09
		c-1.56,2.863-3.176,5.772-4.857,8.727c-1.678,2.959-3.637,5.521-5.878,7.7c-1.058,0.683-2.006,0.87-2.848,0.563
		c-0.838-0.316-1.57-0.998-2.189-2.056c-0.314-1.616-0.314-3.466,0-5.554c0.307-2.083,0.775-4.212,1.398-6.393
		c0.621-2.178,1.29-4.309,2.008-6.394C405.544,295.566,406.119,293.715,406.555,292.095 M418.313,294.99
		c0-0.124-0.015-0.106-0.047,0.042c-0.031,0.163-0.076,0.396-0.138,0.704L418.313,294.99z"/>
	<path fill="#D40976" d="M466.469,292.281c-0.745,1.618-1.573,3.242-2.472,4.857c-0.902,1.619-1.9,3.093-2.987,4.433
		c-1.087,1.336-2.286,2.52-3.591,3.542c-1.309,1.028-2.8,1.762-4.481,2.197c0,0.995,0.077,2.022,0.233,3.078
		c0.155,1.06,0.451,1.95,0.887,2.665c0.437,0.715,1.059,1.162,1.866,1.348c0.809,0.185,1.838-0.088,3.083-0.837
		c0.434-0.247,1.101-0.672,2.004-1.259c0.903-0.597,1.865-1.294,2.892-2.099c1.03-0.813,1.991-1.699,2.895-2.664
		c0.901-0.961,4.043-4.244,4.542-5.178c0.249-0.559,0.608-0.843,1.075-0.843c0.465,0,0.884,0.189,1.26,0.562
		c0.373,0.376-1.824,3.176-1.697,3.731c0.122,0.562,0,1.091-0.373,1.585c-0.372,0.748-1.041,1.653-2.006,2.705
		c-0.967,1.06-1.976,2.103-3.033,3.13c-1.061,1.027-2.102,1.959-3.128,2.802c-1.023,0.839-1.818,1.385-2.379,1.634
		c-0.127,0.062-0.372,0.186-0.748,0.374c-0.372,0.183-0.792,0.399-1.26,0.647c-0.467,0.258-0.948,0.467-1.444,0.657
		c-0.498,0.185-0.935,0.279-1.307,0.279c-1.371,0-2.615-0.265-3.732-0.792c-1.123-0.53-2.087-1.244-2.894-2.145
		c-0.809-0.9-1.46-1.95-1.958-3.127c-0.5-1.182-0.811-2.424-0.935-3.739c-0.062-0.431-0.108-0.849-0.142-1.252
		c-0.03-0.407-0.045-0.823-0.045-1.263c-0.437-0.311-0.654-0.729-0.654-1.26c0-0.526,0.188-0.982,0.559-1.351
		c0-0.937,0.047-1.869,0.141-2.803c0.094-0.937,0.297-1.898,0.607-2.893c0.435-1.62,1.072-3.576,1.913-5.882
		c0.841-2.301,1.913-4.479,3.218-6.531c1.307-2.055,2.848-3.766,4.62-5.132c1.776-1.37,3.781-1.929,6.022-1.682
		c1.431,0.123,2.486,0.689,3.172,1.682c0.681,0.994,1.121,2.148,1.307,3.456c0.188,1.303,0.171,2.642-0.044,4.009
		C467.231,290.292,466.904,291.413,466.469,292.281 M460.962,287.524c-0.743,0.622-1.491,1.489-2.238,2.612
		c-0.745,1.119-1.446,2.369-2.099,3.735c-0.657,1.364-1.23,2.787-1.728,4.251c-0.5,1.458-0.903,2.814-1.215,4.055
		c0.499-0.497,1.028-1.119,1.587-1.861c0.56-0.758,1.182-1.716,1.869-2.898c0.31-0.502,0.682-1.151,1.118-1.961
		c0.436-0.805,0.856-1.681,1.261-2.61c0.405-0.937,0.746-1.869,1.025-2.806C460.824,289.107,460.962,288.272,460.962,287.524"/>
	<path fill="#D40976" d="M491.263,292.281c-0.746,1.618-1.572,3.242-2.471,4.857c-0.904,1.619-1.901,3.093-2.99,4.433
		c-1.084,1.336-2.284,2.52-3.59,3.542c-1.309,1.028-2.802,1.762-4.48,2.197c0,0.995,0.077,2.022,0.233,3.078
		c0.156,1.06,0.453,1.95,0.887,2.665c0.432,0.715,1.057,1.162,1.866,1.348c0.808,0.185,1.835-0.088,3.083-0.837
		c0.431-0.247,1.101-0.672,2.001-1.259c0.904-0.597,1.867-1.294,2.895-2.099c1.029-0.813,1.99-1.699,2.894-2.664
		c0.902-0.961,1.602-1.913,2.101-2.844c0.246-0.562,0.605-0.846,1.074-0.846c0.464,0,0.885,0.188,1.258,0.56
		c0.374,0.377,0.621,0.847,0.748,1.402c0.125,0.562,0,1.091-0.374,1.585c-0.374,0.748-1.045,1.653-2.008,2.705
		c-0.964,1.06-1.976,2.103-3.031,3.13c-1.057,1.027-2.1,1.959-3.128,2.802c-1.026,0.839-1.818,1.385-2.379,1.634
		c-0.125,0.062-0.373,0.186-0.746,0.374c-0.373,0.183-0.795,0.399-1.26,0.647c-0.469,0.258-0.952,0.467-1.448,0.657
		c-0.498,0.185-0.934,0.279-1.305,0.279c-1.371,0-2.613-0.265-3.734-0.792c-1.122-0.53-2.085-1.244-2.894-2.145
		c-0.808-0.9-1.463-1.95-1.96-3.127c-0.5-1.182-0.81-2.424-0.933-3.739c-0.061-0.431-0.107-0.849-0.141-1.252
		c-0.032-0.407-0.044-0.823-0.044-1.263c-0.438-0.311-0.655-0.729-0.655-1.26c0-0.526,0.187-0.982,0.562-1.351
		c0-0.937,0.044-1.869,0.137-2.803c0.095-0.937,0.296-1.898,0.607-2.893c0.436-1.62,1.074-3.576,1.913-5.882
		c0.84-2.301,1.915-4.479,3.22-6.531c1.309-2.055,2.846-3.766,4.621-5.132c1.774-1.37,3.778-1.929,6.019-1.682
		c1.431,0.123,2.492,0.689,3.174,1.682c0.684,0.994,1.119,2.148,1.307,3.456c0.188,1.303,0.169,2.642-0.048,4.009
		C492.025,290.292,491.699,291.413,491.263,292.281 M485.755,287.524c-0.743,0.622-1.49,1.489-2.237,2.612
		c-0.746,1.119-1.447,2.369-2.1,3.735c-0.654,1.364-1.229,2.787-1.727,4.251c-0.498,1.458-0.904,2.814-1.212,4.055
		c0.497-0.497,1.027-1.119,1.586-1.861c0.56-0.758,1.181-1.716,1.866-2.898c0.312-0.502,0.684-1.151,1.121-1.961
		c0.435-0.805,0.854-1.681,1.259-2.61c0.406-0.937,0.746-1.869,1.027-2.806C485.619,289.107,485.755,288.272,485.755,287.524"/>
	<path fill="#D40976" d="M522.466,288.741c0.307,0.557,0.415,1.066,0.324,1.537c-0.092,0.463-0.324,0.842-0.706,1.116
		c-0.369,0.28-0.824,0.439-1.348,0.469c-0.527,0.032-1.016-0.173-1.447-0.607c-1.057-0.933-1.807-1.992-2.238-3.171
		c-0.439-1.181-0.654-2.473-0.654-3.874c0-1.398,0.168-2.923,0.51-4.57c0.344-1.648,0.732-3.376,1.17-5.182
		c0.806-3.236,1.886-6.501,3.222-9.8c1.337-3.299,2.922-6.285,4.756-8.961c1.837-2.671,3.845-4.818,6.02-6.438
		c2.176-1.619,4.512-2.333,7-2.146c1.497,0.063,2.55,0.809,3.172,2.239c0.624,1.433,0.985,3.221,1.075,5.364
		c0.094,2.15-0.029,4.515-0.371,7.098c-0.345,2.582-0.745,5.053-1.215,7.416c-0.465,2.363-0.917,4.483-1.353,6.347
		c-0.437,1.865-0.742,3.173-0.936,3.92c0.376-1.179,1.217-2.642,2.525-4.388c1.306-1.739,2.858-3.516,4.661-5.318
		c1.808-1.803,3.735-3.499,5.79-5.086c2.05-1.586,3.994-2.769,5.83-3.547c1.836-0.774,3.421-1.009,4.759-0.698
		c1.339,0.31,2.225,1.4,2.659,3.266c0.688,3.172,0.922,6.333,0.702,9.474c-0.221,3.141-0.656,6.314-1.306,9.516
		c-0.651,3.206-1.356,6.458-2.101,9.755c-0.748,3.303-1.279,6.625-1.59,9.986c-0.367,3.427-0.496,6.019-0.367,7.793
		c0.123,1.772,0.586,2.974,1.396,3.595c0.807,0.62,2.01,0.741,3.591,0.37c1.591-0.37,3.627-0.991,6.115-1.865
		c0.622-0.247,1.167-0.285,1.634-0.096c0.468,0.189,0.793,0.468,0.982,0.843c0.187,0.371,0.197,0.81,0.044,1.306
		c-0.157,0.498-0.544,0.905-1.167,1.218c-4.29,1.673-7.621,2.483-9.981,2.425c-2.369-0.065-4.078-0.799-5.138-2.195
		c-1.057-1.398-1.664-3.298-1.821-5.693c-0.155-2.392-0.172-5.087-0.045-8.072c0.062-1.37,0.327-3.326,0.793-5.879
		c0.466-2.549,0.936-5.27,1.4-8.168c0.467-2.897,0.84-5.739,1.122-8.539c0.276-2.802,0.292-5.101,0.047-6.904
		c-0.251-1.808-0.857-2.896-1.819-3.267c-0.965-0.374-2.447,0.371-4.436,2.237c-1.993,1.807-3.89,3.951-5.692,6.442
		c-1.805,2.485-3.5,5.133-5.085,7.931c-1.586,2.804-3.052,5.617-4.388,8.445c-1.337,2.831-2.508,5.464-3.498,7.888
		c-1.25,2.922-2.367,5.849-3.362,8.771c-0.996,2.926-1.992,5.849-2.987,8.771l-0.464,0.748c-0.497,0.872-1.122,1.478-1.872,1.818
		c-0.74,0.345-1.475,0.44-2.188,0.283c-0.715-0.158-1.351-0.529-1.913-1.121c-0.56-0.592-0.873-1.413-0.933-2.472
		c0.684-4.913,1.636-9.349,2.846-13.299c1.215-3.952,2.503-7.806,3.874-11.577c1.368-3.756,2.691-7.635,3.966-11.612
		c1.273-3.983,2.347-8.462,3.219-13.441c0.25-1.306,0.562-2.896,0.937-4.761c0.371-1.867,0.67-3.652,0.884-5.363
		c0.218-1.714,0.252-3.174,0.094-4.387c-0.155-1.216-0.636-1.791-1.446-1.729c-0.747-0.062-1.707,0.484-2.891,1.634
		c-1.184,1.15-2.399,2.692-3.64,4.619c-1.247,1.93-2.446,4.138-3.594,6.628c-1.153,2.491-2.101,5.006-2.85,7.559
		c-0.246,0.873-0.576,2.021-0.977,3.452c-0.409,1.434-0.699,2.911-0.891,4.433c-0.185,1.528-0.185,2.969,0,4.345
		C521.066,286.933,521.59,287.989,522.466,288.741"/>
	<path fill="#D40976" d="M576.778,290.512c0.995-1.435,1.852-2.04,2.568-1.819c0.714,0.219,1.071,0.949,1.071,2.194
		c-0.497,2.795-0.965,5.474-1.401,8.021c-0.438,2.553-0.763,4.793-0.978,6.721c-0.219,1.927-0.279,3.5-0.188,4.711
		c0.094,1.214,0.481,1.855,1.165,1.912v0.096c0.812,0.313,1.805,0.393,2.992,0.232c1.179-0.156,2.41-0.494,3.682-1.026
		c1.277-0.528,2.536-1.179,3.778-1.957c1.246-0.782,2.37-1.664,3.361-2.665c0.56-0.186,1.058-0.216,1.497-0.09
		c0.431,0.126,0.772,0.344,1.024,0.653c0.245,0.312,0.371,0.702,0.371,1.168c0,0.465-0.181,0.919-0.558,1.351
		c-4.419,3.55-8.167,5.946-11.246,7.184c-3.08,1.245-5.57,1.681-7.47,1.311c-1.895-0.37-3.234-1.383-4.011-3.031
		c-0.777-1.647-1.108-3.562-0.982-5.748c0.311-4.04,0.967-7.538,1.964-10.491C574.416,296.281,575.533,293.373,576.778,290.512"/>
	<path fill="#D40976" d="M612.616,291.819c0,1.184-0.468,1.852-1.4,2.004c-0.931,0.157-1.68-0.265-2.237-1.261l-0.379-5.41h-1.306
		c-1.242,0.808-2.486,2.067-3.731,3.779c-1.246,1.712-2.334,3.563-3.265,5.553c-0.932,1.989-1.633,4.012-2.098,6.066
		c-0.47,2.051-0.515,3.826-0.142,5.321c0.124,0.556,0.436,1.228,0.934,2.004c0.499,0.777,1.059,1.231,1.679,1.353
		c0.936-0.121,1.915-0.48,2.937-1.073c1.032-0.591,2.071-1.259,3.132-2.007c1.058-0.748,2.08-1.506,3.074-2.279
		c0.996-0.781,7.269-6.426,8.011-6.922c0.563-0.189,0.235,0.421,0.64,0.545c0.405,0.126,0.729,0.341,0.981,0.652
		c0.248,0.315,0.371,0.704,0.371,1.168c0,0.467-0.185,0.916-0.554,1.355c-0.88,0.805-6.382,6.093-7.344,7.115
		c-0.968,1.027-1.961,2.04-2.988,3.035c-1.03,0.994-2.1,1.896-3.222,2.706c-1.117,0.808-2.271,1.398-3.447,1.77
		c-1.252,0.378-2.464,0.389-3.648,0.052c-1.18-0.342-2.254-0.89-3.218-1.635c-0.962-0.747-1.804-1.651-2.516-2.712
		c-0.716-1.056-1.261-2.14-1.636-3.267c-0.497-1.674-0.573-3.804-0.232-6.389c0.344-2.579,0.996-5.182,1.961-7.79
		c0.96-2.615,2.225-5.024,3.78-7.236c1.552-2.206,3.299-3.812,5.224-4.807c1.619-0.809,3.154-1.227,4.621-1.26
		c1.462-0.028,2.688,0.298,3.688,0.987c0.991,0.68,1.728,1.751,2.192,3.21C612.942,287.912,612.99,289.698,612.616,291.819"/>
	<path fill="#D40976" d="M627.796,290.421c0,0.058,0.016,0.124,0.047,0.178c0.031,0.068,0.05,0.131,0.05,0.193
		c3.358-1.558,6.856-2.848,10.493-3.879c3.643-1.018,7.236-1.974,10.779-2.842c1.121,0,1.821,0.455,2.104,1.351
		c0.279,0.903-0.076,1.638-1.076,2.192c-2.361,1-4.746,1.994-7.138,2.984c-2.393,0.999-4.776,2.091-7.142,3.272
		c0.811,1.244,1.152,2.646,1.033,4.199c-0.132,1.554-0.41,3.051-0.845,4.479c-0.371,1.185-0.904,2.44-1.586,3.775
		c-0.684,1.34-1.494,2.611-2.43,3.829c-0.928,1.213-1.975,2.301-3.122,3.269c-1.152,0.964-2.317,1.658-3.501,2.099
		c-0.745,0.313-1.553,0.467-2.425,0.467c-0.875,0-1.742,0.062-2.617,0.187c-0.682-0.124-1.212-0.279-1.581-0.469
		c-0.374-0.185-0.813-0.526-1.31-1.022c-0.313-0.565-0.683-1.107-1.119-1.631c-0.437-0.529-0.75-1.107-0.934-1.729
		c-0.498-1.617-0.546-3.499-0.139-5.648c0.4-2.145,1.059-4.313,1.96-6.483c0.896-2.177,1.957-4.218,3.168-6.116
		c1.211-1.891,2.381-3.404,3.501-4.523c1.248-1.125,2.333-0.969,3.269,0.465L627.796,290.421z M626.864,297.508
		c-1.305-0.624-2.054-1.496-2.241-2.615c-1.056,2.183-1.805,4.514-2.241,7.004c-0.432,2.487-0.616,4.919-0.556,7.278
		c0.809-0.122,1.601-0.512,2.381-1.163c0.772-0.65,1.476-1.417,2.096-2.286c0.623-0.873,1.181-1.774,1.681-2.706
		c0.497-0.937,0.9-1.744,1.215-2.433c0.433-0.935,0.685-1.772,0.746-2.516v-0.186c-0.499-0.124-1.022-0.175-1.589-0.146
		C627.796,297.777,627.297,297.694,626.864,297.508"/>
	<path fill="#D40976" d="M669.698,262.328c-0.556,2.675-1.443,5.847-2.652,9.519c-1.217,3.67-2.65,7.369-4.296,11.104
		c-1.65,3.731-3.487,7.235-5.509,10.498c-2.021,3.269-4.124,5.834-6.3,7.7c0.064,0.995,0.127,1.993,0.188,2.988
		c0.062,0.994,0.233,1.961,0.514,2.893c0.276,0.933,0.665,1.786,1.165,2.563c0.496,0.784,1.178,1.448,2.051,2.011
		c3.421-0.69,6.505-1.944,9.243-3.78c2.736-1.837,5.195-4.126,7.372-6.864c0.434-0.373,0.882-0.557,1.352-0.557
		c0.468,0,0.854,0.125,1.164,0.375c0.314,0.243,0.53,0.575,0.655,0.974c0.124,0.41,0.094,0.889-0.089,1.452
		c-1.063,1.491-2.369,3.063-3.923,4.711c-1.556,1.649-3.233,3.145-5.04,4.478c-1.805,1.344-3.685,2.446-5.646,3.317
		c-1.961,0.868-3.827,1.26-5.601,1.166c-1.774-0.097-3.407-0.777-4.898-2.057c-1.49-1.273-2.709-3.372-3.645-6.298
		c-0.685-2.179-1.098-4.604-1.252-7.281c-0.156-2.669-0.208-5.131-0.144-7.369c0.063-2.053,0.265-4.438,0.607-7.141
		c0.344-2.705,0.823-5.515,1.446-8.444c0.617-2.927,1.415-5.882,2.384-8.865c0.958-2.988,2.094-5.817,3.404-8.496
		c1.304-2.674,2.78-5.053,4.43-7.14c1.646-2.082,3.497-3.718,5.556-4.899c1.491-0.932,2.953-1.119,4.386-0.558
		c1.306,0.373,2.254,1.135,2.844,2.285c0.59,1.153,0.931,2.443,1.028,3.874c0.094,1.429,0.028,2.862-0.186,4.29
		C670.086,260.21,669.885,261.394,669.698,262.328 M656.541,269.977c-1.807,4.106-3.172,8.279-4.105,12.508
		c-0.934,4.233-1.46,8.557-1.587,12.975c1.059-1.495,1.978-3.096,2.756-4.807c0.773-1.716,1.506-3.412,2.192-5.089
		c0.744-1.742,1.583-3.86,2.516-6.351c0.933-2.482,1.822-5.066,2.661-7.742c0.84-2.675,1.54-5.303,2.103-7.889
		c0.559-2.578,0.808-4.896,0.743-6.948c-0.311,0.37-0.622,0.776-0.935,1.208c-0.313,0.438-0.619,0.874-0.927,1.311
		c-1.186,1.616-2.184,3.358-2.989,5.227C658.159,266.246,657.351,268.111,656.541,269.977"/>
	<path fill="#D40976" d="M691.167,292.281c-0.748,1.618-1.573,3.242-2.477,4.857c-0.901,1.619-1.899,3.093-2.983,4.433
		c-1.092,1.336-2.287,2.52-3.595,3.542c-1.304,1.028-2.798,1.762-4.479,2.197c0,0.995,0.074,2.022,0.234,3.078
		c0.151,1.06,0.449,1.95,0.888,2.665c0.432,0.715,1.058,1.162,1.864,1.348c0.811,0.185,1.833-0.088,3.085-0.837
		c0.433-0.247,1.097-0.672,2.002-1.259c0.898-0.597,1.866-1.294,2.89-2.099c1.029-0.813,1.993-1.699,2.897-2.664
		c0.899-0.961,1.6-1.913,2.098-2.844c0.25-0.562,0.608-0.846,1.076-0.846c0.467,0,0.887,0.188,1.26,0.56
		c0.374,0.377,0.619,0.847,0.749,1.402c0.118,0.562,0,1.091-0.375,1.585c-0.374,0.748-1.044,1.653-2.012,2.705
		c-0.961,1.06-1.975,2.103-3.03,3.13c-1.06,1.027-2.099,1.959-3.129,2.802c-1.026,0.839-1.815,1.385-2.379,1.634
		c-0.121,0.062-0.372,0.186-0.746,0.374c-0.374,0.183-0.789,0.399-1.258,0.647c-0.465,0.258-0.95,0.467-1.45,0.657
		c-0.495,0.185-0.93,0.279-1.307,0.279c-1.371,0-2.609-0.265-3.729-0.792c-1.122-0.53-2.088-1.244-2.896-2.145
		c-0.81-0.9-1.466-1.95-1.957-3.127c-0.501-1.182-0.813-2.424-0.935-3.739c-0.063-0.431-0.104-0.849-0.14-1.252
		c-0.033-0.407-0.046-0.823-0.046-1.263c-0.438-0.311-0.657-0.729-0.657-1.26c0-0.526,0.19-0.982,0.56-1.351
		c0-0.937,0.049-1.869,0.144-2.803c0.089-0.937,0.296-1.898,0.603-2.893c0.437-1.62,1.077-3.576,1.912-5.882
		c0.843-2.301,1.924-4.479,3.222-6.531c1.31-2.055,2.85-3.766,4.619-5.132c1.774-1.37,3.779-1.929,6.022-1.682
		c1.428,0.123,2.486,0.689,3.174,1.682c0.686,0.994,1.121,2.148,1.306,3.456c0.187,1.303,0.172,2.642-0.05,4.009
		C691.926,290.292,691.598,291.413,691.167,292.281 M685.659,287.524c-0.743,0.622-1.493,1.489-2.239,2.612
		c-0.745,1.119-1.442,2.369-2.097,3.735c-0.658,1.364-1.232,2.787-1.727,4.251c-0.503,1.458-0.904,2.814-1.214,4.055
		c0.496-0.497,1.025-1.119,1.583-1.861c0.562-0.758,1.182-1.716,1.869-2.898c0.311-0.502,0.683-1.151,1.119-1.961
		c0.437-0.805,0.854-1.681,1.263-2.61c0.398-0.937,0.741-1.869,1.021-2.806C685.523,289.107,685.659,288.272,685.659,287.524"/>
</g>
</svg>
